<svg xmlns="http://www.w3.org/2000/svg" width="256" height="256" viewBox="0 0 100 100"><rect width="100" height="100" rx="20" fill="#f7f3ef"></rect><path d="M41.40 87.63Q31.34 87.63 26.87 82.64Q22.39 77.65 22.39 66.55L22.39 66.55L22.39 59.33L36.93 59.33L36.93 68.53Q36.93 74.04 40.45 74.04L40.45 74.04Q42.43 74.04 43.21 72.88Q43.98 71.72 43.98 68.96L43.98 68.96Q43.98 65.35 43.12 62.99Q42.26 60.62 40.93 59.03Q39.59 57.44 36.15 54.08L36.15 54.08L29.79 47.72Q22.39 40.50 22.39 31.72L22.39 31.72Q22.39 22.26 26.74 17.32Q31.08 12.37 39.42 12.37L39.42 12.37Q49.40 12.37 53.78 17.66Q58.17 22.95 58.17 34.22L58.17 34.22L43.12 34.22L43.03 29.14Q43.03 27.68 42.22 26.82Q41.40 25.96 39.94 25.96L39.94 25.96Q38.22 25.96 37.36 26.91Q36.50 27.85 36.50 29.49L36.50 29.49Q36.50 33.10 40.63 36.97L40.63 36.97L49.23 45.23Q52.24 48.15 54.21 50.77Q56.19 53.40 57.40 56.97Q58.60 60.53 58.60 65.44L58.60 65.44Q58.60 76.36 54.60 81.99Q50.60 87.63 41.40 87.63L41.40 87.63ZM77.61 86.94L62.56 86.94L62.56 74.38L77.61 74.38L77.61 86.94Z" fill="#000000"></path></svg>